<?xml version="1.0" encoding="UTF-8"?>
<svg id="Laag_1" xmlns="http://www.w3.org/2000/svg" version="1.1" viewBox="0 0 300 300">
  <defs>
    <style>
      .st0 {
        fill: #090d0d;
      }
      .st1 {
        fill: #fff;
      }
    </style>
  </defs>
  <rect class="st0" x=".03" width="300" height="300" rx="12.04" ry="12.04"/>
  <path class="st1" d="M49.75,151.68c22.61-.22,45.53-1.18,68.16-1.26,50.21-.18,100.43.69,150.6,1.05,2.49.02,4.52-2,4.52-4.49v-1.98c0-2.72-2.21-4.93-4.93-4.93h-24.38c-.14,0-.27-.08-.32-.21-11.13-26.3-30.66-49.46-47.71-72.34-.13-.18-.39-.19-.54-.03l-46.53,48.21c-.3.31-.78-.07-.56-.43l31.46-50.77c.08-.12.07-.28-.02-.4l-30.28-40.63c-1.71.47-2.8,1.5-3.91,2.83-9.68,11.69-19.12,32.5-28.13,45.91-3.38,5.03-9.03,15.14-14.76,16.48-5.4,1.26-16.29-.23-20.28,4.02-1.92,2.04-9.1,16.7-10.88,20.36-2.17,4.46-9.51,24.78-12.12,27.03-.07.06-.15.08-.24.08l-28.13-.07c-2.06,0-3.74,1.67-3.74,3.73v3.94c0,2.17,1.75,3.93,3.92,3.94,6.27.03,12.53.05,18.8-.02Z"/>
  <path class="st1" d="M127.22,167.83H63.01c-.26,2.02.14,3.61.9,5.46,2.36,5.7,11.53,19.61,15.49,25,6.96,9.46,16.29,18.08,23.49,27.47,3.73,2.94,9.77-6.46,12.75-6.64,1.38.2,2.49.99,3.41,1.99,3.08,3.37,10.71,17.36,13.56,22.3,6.26,10.83,11.15,22.49,17.73,33.15l86.16-103.53c-1.39-1.78-1.44-1.73-3.49-1.23-3.9.97-16.03,9.59-19.99,12.44-15.89,11.43-28.8,25.97-44.15,37.97-12.78-18.84-23.76-39.91-41.67-54.38Z"/>
</svg>

